<?xml version="1.0" encoding="UTF-8" standalone="no"?>
<!-- Created with Inkscape (http://www.inkscape.org/) -->

<svg
   width="40mm"
   height="40mm"
   viewBox="0 0 40 40"
   version="1.1"
   id="svg5"
   inkscape:version="1.1 (c68e22c387, 2021-05-23)"
   sodipodi:docname="univalent.svg"
   xmlns:inkscape="http://www.inkscape.org/namespaces/inkscape"
   xmlns:sodipodi="http://sodipodi.sourceforge.net/DTD/sodipodi-0.dtd"
   xmlns="http://www.w3.org/2000/svg"
   xmlns:svg="http://www.w3.org/2000/svg">
  <sodipodi:namedview
     id="namedview7"
     pagecolor="#ffffff"
     bordercolor="#666666"
     borderopacity="1.0"
     inkscape:pageshadow="2"
     inkscape:pageopacity="0.0"
     inkscape:pagecheckerboard="0"
     inkscape:document-units="mm"
     showgrid="true"
     inkscape:zoom="4"
     inkscape:cx="79.75"
     inkscape:cy="78.375"
     inkscape:window-width="1920"
     inkscape:window-height="1027"
     inkscape:window-x="-8"
     inkscape:window-y="-8"
     inkscape:window-maximized="1"
     inkscape:current-layer="layer1"
     fit-margin-top="0"
     fit-margin-left="0"
     fit-margin-right="0"
     fit-margin-bottom="0">
    <inkscape:grid
       type="xygrid"
       id="grid2591"
       originx="-74.347916"
       originy="-129.31984" />
  </sodipodi:namedview>
  <defs
     id="defs2" />
  <g
     inkscape:label="レイヤー 1"
     inkscape:groupmode="layer"
     id="layer1"
     style="display:inline"
     transform="translate(-74.347916,-129.31983)"
     sodipodi:insensitive="true">
    <path
       id="path38088-7-3"
       style="display:inline;fill:#48fcd6;fill-opacity:1;stroke:#48fcd6;stroke-width:0;stroke-linecap:butt;stroke-linejoin:miter;stroke-miterlimit:4;stroke-dasharray:none;stroke-opacity:1"
       d="m 82.285417,139.13447 c 0,1.59962 0,3.19924 0,4.79886 3.844855,0 7.689709,0 11.534565,0 0,-1.76389 0,-3.52778 0,-5.29166 -3.844855,0 -7.68971,0 -11.534565,0 0,0.16426 0,0.32853 0,0.4928 z" />
    <path
       style="fill:#00ff00;fill-opacity:1;stroke:#00ff00;stroke-width:0.5;stroke-linecap:butt;stroke-linejoin:miter;stroke-miterlimit:4;stroke-dasharray:none;stroke-opacity:1"
       d="m 82.814582,129.64583 11.1125,31.48542 h 0.264583 l 11.112505,-31.48542 z"
       id="path34535" />
    <path
       style="display:inline;fill:#48fcd6;fill-opacity:1;stroke:#48fcd6;stroke-width:0;stroke-linecap:butt;stroke-linejoin:miter;stroke-miterlimit:4;stroke-dasharray:none;stroke-opacity:1"
       d="m 82.883364,149.225 h 13.689553 v 5.55625 H 82.883364 Z"
       id="path38088-7" />
    <path
       id="path18378"
       style="fill:#48fcd6;fill-opacity:1;stroke:#48fcd6;stroke-width:0.502542;stroke-linecap:butt;stroke-linejoin:miter;stroke-miterlimit:4;stroke-dasharray:none;stroke-opacity:1"
       d="m 76.76839,129.5711 c 0,6.98595 -0.06242,21.4967 0.135197,29.96893 0.128252,5.49837 10.655843,9.52853 16.97255,9.52853 v -7.52333 C 83.348295,160.47047 83.348292,155.09667 83.613544,129.5711 Z m 27.63354,0 c 0.26525,25.52557 0.26525,30.89937 -10.262598,31.97413 v 7.52333 c 6.316698,0 16.844308,-4.03016 16.972558,-9.52853 0.19762,-8.47223 0.13519,-22.98298 0.13519,-29.96893 z" />
  </g>
</svg>
